/* XPM */
static char *result[] = {
/* columns rows colors chars-per-pixel */
"16 16 70 1 ",
"  c #2F5B26",
". c #384B35",
"X c #3D5338",
"o c #357A25",
"O c #377C27",
"+ c #3A712D",
"@ c #415F3C",
"# c #455F3F",
"$ c #45603F",
"% c #44623E",
"& c #44633E",
"* c #44653D",
"= c #44663C",
"- c #44663D",
"; c #45653E",
": c #46653E",
"> c #426F39",
", c #476B3F",
"< c #427A35",
"1 c #427139",
"2 c #455C41",
"3 c #475844",
"4 c #456040",
"5 c #35B417",
"6 c #37B619",
"7 c #37BA18",
"8 c #3A8428",
"9 c #3F852F",
"0 c #3E8E2B",
"q c #3F8A2D",
"w c #3D9529",
"e c #3FBB23",
"r c #3FBD21",
"t c #3FBC22",
"y c #40892E",
"u c #40892F",
"i c #408131",
"p c #4A9F36",
"a c #4E923F",
"s c #4F923F",
"d c #4A9D38",
"f c #40BB23",
"g c #40B824",
"h c #45A630",
"j c #3CC31D",
"k c #528747",
"l c #508F41",
"z c #508A44",
"x c #528B44",
"c c #528A45",
"v c #528946",
"b c #56834B",
"n c #538648",
"m c #55854B",
"M c #4F9140",
"N c #509042",
"B c #509540",
"V c #519740",
"C c #7EE566",
"Z c #7EE567",
"A c #80E768",
"S c #81E869",
"D c #82EA6A",
"F c #88F26F",
"G c #8BEE74",
"H c #8FFD76",
"J c #93F17C",
"K c #93FF79",
"L c #A0FF82",
"P c None",
/* pixels */
"PPPPPPPAAPPPPPPP",
"PPPPPPPAAPPPPPPP",
"PPyOPPPAAPPP6fPP",
"PPuoPFDAASGP5fPP",
"PPq8PPPAAPPP7tPP",
"P09uPPPAAPPPrgjP",
"PPi3PPHZCJPPmePP",
"P4P3 PLPPKPwbPkP",
"PP%P+PPPPPPhPxPP",
"PP12,X.PP<zBndPP",
"PP>$&:@PPVNlvpPP",
"PP#=*PPPPPPMacPP",
"PP-**PPPPPPMMsPP",
"PP*P*PPPPPPMPMPP",
"PPPP*;PPPPMMPPPP",
"PPPPPPPPPPPPPPPP"
};
