/* XPM */
static char *result[] = {
/* columns rows colors chars-per-pixel */
"32 32 117 2 ",
"   c #367F25",
".  c #377E27",
"X  c #435F3C",
"o  c #455F3F",
"O  c #42613C",
"+  c #43613D",
"@  c #45603F",
"#  c #44613F",
"$  c #45613F",
"%  c #44623E",
"&  c #45623E",
"*  c #44633E",
"=  c #44653D",
"-  c #44663C",
";  c #44673C",
":  c #44663D",
">  c #44673D",
",  c #45643E",
"<  c #45653E",
"1  c #436A3B",
"2  c #44683C",
"3  c #427237",
"4  c #427537",
"5  c #417736",
"6  c #437038",
"7  c #465743",
"8  c #465942",
"9  c #455B42",
"0  c #455D40",
"q  c #455C41",
"w  c #455D41",
"e  c #455E40",
"r  c #465F40",
"t  c #557F4D",
"y  c #2FBA0F",
"u  c #35B417",
"i  c #3DBF1F",
"p  c #3F872E",
"a  c #3E8F2B",
"s  c #3E8B2C",
"d  c #3E8A2D",
"f  c #3F8A2D",
"g  c #489437",
"h  c #3F892E",
"j  c #3F8C2C",
"k  c #3E8D2C",
"l  c #3F8C2D",
"z  c #3E8E2C",
"x  c #3C9F24",
"c  c #3E912A",
"v  c #3F922A",
"b  c #3D9628",
"n  c #3FBA22",
"m  c #3FBB22",
"M  c #3EBD20",
"N  c #3EBE20",
"B  c #3FBC22",
"V  c #408330",
"C  c #408231",
"Z  c #418730",
"A  c #4E8E3F",
"S  c #4E923F",
"D  c #4F923F",
"F  c #4E933F",
"G  c #4F933F",
"H  c #4E953E",
"J  c #4B9D38",
"K  c #45AA2E",
"L  c #41B427",
"P  c #40B923",
"I  c #40BB23",
"U  c #40BC23",
"Y  c #47A532",
"T  c #34D70E",
"R  c #3BC51B",
"E  c #3AC71A",
"W  c #3CC11D",
"Q  c #3CC31C",
"!  c #3CC21D",
"~  c #3DC21D",
"^  c #3CC11E",
"/  c #3CC01F",
"(  c #3DC11F",
")  c #36D012",
"_  c #3EC020",
"`  c #538747",
"'  c #508F41",
"]  c #508E42",
"[  c #508F42",
"{  c #508B44",
"}  c #518A45",
"|  c #518B45",
" . c #528B45",
".. c #528846",
"X. c #528946",
"o. c #528847",
"O. c #538847",
"+. c #518C44",
"@. c #54824B",
"#. c #55824B",
"$. c #55834B",
"%. c #538648",
"&. c #4F9140",
"*. c #4F9240",
"=. c #509042",
"-. c #509440",
";. c #7FE567",
":. c #80E668",
">. c #80E768",
",. c #80E868",
"<. c #83EB6A",
"1. c #87F46E",
"2. c #8BF074",
"3. c #8EF077",
"4. c #8DFA73",
"5. c #8CFF72",
"6. c None",
/* pixels */
"6.6.6.6.6.6.6.6.6.6.6.6.6.6.6.6.6.6.6.6.6.6.6.6.6.6.6.6.6.6.6.6.",
"6.6.6.6.6.6.6.6.6.6.6.6.6.6.6.>.>.6.6.6.6.6.6.6.6.6.6.6.6.6.6.6.",
"6.6.6.6.6.6.6.6.6.6.6.6.6.6.>.>.>.>.6.6.6.6.6.6.6.6.6.6.6.6.6.6.",
"6.6.6.6.6.g g 6.6.6.6.6.6.6.>.>.>.>.6.6.6.6.6.6.6.m m 6.6.6.6.6.",
"6.6.6.6.6.g g 6.6.6.6.6.6.6.>.>.>.>.6.6.6.6.6.6.6.m m 6.6.6.6.6.",
"6.6.6.6.g g g 6.6.6.6.6.6.6.6.>.>.6.6.6.6.6.6.6.6.m m m 6.6.6.6.",
"6.6.6.6.g g g 6.6.6.4.>.>.>.>.>.>.>.>.>.>.3.6.6.6.m m m 6.6.6.6.",
"6.6.6.6.6.6.6.g . 6.6.<.>.>.>.>.>.>.>.>.>.6.6.u U 6.m 6.6.6.6.6.",
"6.6.6.6.6.g g g 6.6.6.6.6.>.>.>.>.>.>.6.6.6.6.6.I m m 6.6.6.6.6.",
"6.6.6.6.g g p g 6.6.6.6.6.>.>.>.>.>.>.6.6.6.6.6.I n m m 6.6.6.6.",
"6.6.6.g p h a f 6.6.6.6.6.>.>.>.>.>.>.6.6.6.6.6.N Q n m m 6.6.6.",
"6.6.k h g d 6.f l 6.6.6.6.>.>.>.>.>.>.6.6.6.6._ M 6.i P B ~ 6.6.",
"6.6.V 6.6.5 6.6.j 6.6.6.6.>.>.>.6.>.>.6.6.6.6.W D 6.6.! 6.L 6.6.",
"6.6.6.6.b 6.$ 7 3 6.6.6.6.>.>.6.6.>.>.6.6.6.6.Y $.O.6.) 6.6.6.6.",
"6.6.8 6.x 2 0 @ 1 6.6.6.6.>.>.6.6.>.>.6.6.6.6.] ] ..6.T 6.t 6.6.",
"6.6.o * 6.6.# & & Z 6.6.6.;.,.6.6.6.:.2.6.6.K #.&.' 6.6.o.{ 6.6.",
"6.6.6.w 9 6.6.w 6 v   6.6.5.6.6.6.6.1.6.6.y ( H } 6.6.%.+.6.6.6.",
"6.6.6.6.9 q = 6.6.6.6.6.6.6.6.6.6.6.6.6.6.6./ 6.6.] ` @.6.6.6.6.",
"6.6.6.b 4 w = ; r 6.6.6.6.6.6.6.6.6.6.6.6.6.6.| F G X.J E 6.6.6.",
"6.6.6.s z , * = - * % = : O X > 6.G A *.&.] [ D &.[ ] i ^ 6.6.6.",
"6.6.6.c C w : = = = = < = = + 6.6.-.&.&.&.&.&.&.&.=. .6.R 6.6.6.",
"6.6.6.6.6.e : = = = 6.6.6.6.6.6.6.6.6.6.6.6.&.&.&.*.X.6.6.6.6.6.",
"6.6.6.6.6.- = = = = 6.6.6.6.6.6.6.6.6.6.6.6.&.&.&.&.S 6.6.6.6.6.",
"6.6.6.6.: = = = = = 6.6.6.6.6.6.6.6.6.6.6.6.&.&.&.&.&.D 6.6.6.6.",
"6.6.6.6.= = = = = = 6.6.6.6.6.6.6.6.6.6.6.6.&.&.&.&.&.&.6.6.6.6.",
"6.6.6.6.= = 6.6.= = = 6.6.6.6.6.6.6.6.6.6.6.&.&.6.6.&.&.6.6.6.6.",
"6.6.6.6.= = 6.6.= = = 6.6.6.6.6.6.6.6.6.6.&.&.&.6.6.&.&.6.6.6.6.",
"6.6.6.6.= 6.6.6.= = = 6.6.6.6.6.6.6.6.6.6.&.&.&.6.6.6.&.6.6.6.6.",
"6.6.6.6.6.6.6.6.= = < 6.6.6.6.6.6.6.6.6.6.&.&.&.6.6.6.6.6.6.6.6.",
"6.6.6.6.6.6.6.6.6.= < 6.6.6.6.6.6.6.6.6.6.&.&.6.6.6.6.6.6.6.6.6.",
"6.6.6.6.6.6.6.6.6.= = 6.6.6.6.6.6.6.6.6.6.&.&.6.6.6.6.6.6.6.6.6.",
"6.6.6.6.6.6.6.6.6.6.6.6.6.6.6.6.6.6.6.6.6.6.6.6.6.6.6.6.6.6.6.6."
};
