/* XPM */
static char *result[] = {
/* columns rows colors chars-per-pixel */
"64 64 146 2 ",
"   c #317221",
".  c #357A25",
"X  c #455F3F",
"o  c #43613D",
"O  c #43623D",
"+  c #44633D",
"@  c #44613E",
"#  c #45603F",
"$  c #44613F",
"%  c #45613F",
"&  c #44623E",
"*  c #44633E",
"=  c #45623F",
"-  c #44643D",
";  c #44653D",
":  c #45653D",
">  c #44663C",
",  c #44673C",
"<  c #44663D",
"1  c #44643E",
"2  c #44653E",
"3  c #45653E",
"4  c #45663E",
"5  c #44683C",
"6  c #465744",
"7  c #455B41",
"8  c #465B41",
"9  c #465942",
"0  c #465A42",
"q  c #465B42",
"w  c #455C40",
"e  c #455D40",
"r  c #455D41",
"t  c #455E40",
"y  c #455F40",
"u  c #466041",
"i  c #567F4D",
"p  c #30B112",
"a  c #32B314",
"s  c #3DBE1F",
"d  c #3DBF1F",
"f  c #3EBF1F",
"g  c #3A822A",
"h  c #3F872E",
"j  c #3F862F",
"k  c #3E8D2B",
"l  c #3E8E2B",
"z  c #3E8F2B",
"x  c #3F892D",
"c  c #3F8A2D",
"v  c #3F8B2D",
"b  c #489437",
"n  c #3F892E",
"m  c #3F882F",
"M  c #3F8C2C",
"N  c #3F8D2C",
"B  c #3D9927",
"V  c #3C9D25",
"C  c #3D9129",
"Z  c #3E902A",
"A  c #3E912A",
"S  c #3E902B",
"D  c #3E922A",
"F  c #3D9429",
"G  c #3FBB21",
"H  c #3FB922",
"J  c #3FB923",
"K  c #3FBA22",
"L  c #3FBB22",
"P  c #3FBA23",
"I  c #3FBC21",
"U  c #3EBD21",
"Y  c #3EBE20",
"T  c #3FBC22",
"R  c #40892F",
"E  c #4E933E",
"W  c #4E923F",
"Q  c #4F923F",
"!  c #4E933F",
"~  c #4F933F",
"^  c #4E953D",
"/  c #4E943E",
"(  c #40B923",
")  c #40BB23",
"_  c #40B924",
"`  c #40B825",
"'  c #38CD15",
"]  c #39CC16",
"[  c #3AC719",
"{  c #3BC719",
"}  c #3AC51A",
"|  c #3BC41B",
" . c #3AC51B",
".. c #3BC51B",
"X. c #3AC61A",
"o. c #3BC61A",
"O. c #3BC71A",
"+. c #3BC61B",
"@. c #3CC51B",
"#. c #3BC31C",
"$. c #3CC31C",
"%. c #3CC21D",
"&. c #3DC21D",
"*. c #3DC01F",
"=. c #3BC41C",
"-. c #3CC41C",
";. c #3BC819",
":. c #538747",
">. c #508F41",
",. c #518D43",
"<. c #508E42",
"1. c #508F42",
"2. c #518E43",
"3. c #518B44",
"4. c #518A45",
"5. c #528A45",
"6. c #518946",
"7. c #528846",
"8. c #538846",
"9. c #538847",
"0. c #55824B",
"q. c #538548",
"w. c #538549",
"e. c #538648",
"r. c #538748",
"t. c #548449",
"y. c #548648",
"u. c #55804C",
"i. c #55804D",
"p. c #4F9140",
"a. c #4F9041",
"s. c #4F9141",
"d. c #4F9240",
"f. c #509041",
"g. c #509141",
"h. c #509241",
"j. c #509440",
"k. c #7EE566",
"l. c #7FE667",
"z. c #7FE767",
"x. c #80E768",
"c. c #81E769",
"v. c #81E969",
"b. c #8FF178",
"n. c #90FE77",
"m. c None",
/* pixels */
"m.m.m.m.m.m.m.m.m.m.m.m.m.m.m.m.m.m.m.m.m.m.m.m.m.m.m.m.m.m.m.m.m.m.m.m.m.m.m.m.m.m.m.m.m.m.m.m.m.m.m.m.m.m.m.m.m.m.m.m.m.m.m.m.",
"m.m.m.m.m.m.m.m.m.m.m.m.m.m.m.m.m.m.m.m.m.m.m.m.m.m.m.m.m.m.m.m.m.m.m.m.m.m.m.m.m.m.m.m.m.m.m.m.m.m.m.m.m.m.m.m.m.m.m.m.m.m.m.m.",
"m.m.m.m.m.m.m.m.m.m.m.m.m.m.m.m.m.m.m.m.m.m.m.m.m.m.m.m.m.m.m.x.x.m.m.m.m.m.m.m.m.m.m.m.m.m.m.m.m.m.m.m.m.m.m.m.m.m.m.m.m.m.m.m.",
"m.m.m.m.m.m.m.m.m.m.m.m.m.m.m.m.m.m.m.m.m.m.m.m.m.m.m.m.m.m.x.x.x.x.x.m.m.m.m.m.m.m.m.m.m.m.m.m.m.m.m.m.m.m.m.m.m.m.m.m.m.m.m.m.",
"m.m.m.m.m.m.m.m.m.m.m.m.m.m.m.m.m.m.m.m.m.m.m.m.m.m.m.m.m.x.x.x.x.x.x.x.m.m.m.m.m.m.m.m.m.m.m.m.m.m.m.m.m.m.m.m.m.m.m.m.m.m.m.m.",
"m.m.m.m.m.m.m.m.m.m.m.m.m.m.m.m.m.m.m.m.m.m.m.m.m.m.m.m.x.x.x.x.x.x.x.x.m.m.m.m.m.m.m.m.m.m.m.m.m.m.m.m.m.m.m.m.m.m.m.m.m.m.m.m.",
"m.m.m.m.m.m.m.m.m.m.m.b b m.m.m.m.m.m.m.m.m.m.m.m.m.m.m.x.x.x.x.x.x.x.x.m.m.m.m.m.m.m.m.m.m.m.m.m.m.L L L m.m.m.m.m.m.m.m.m.m.m.",
"m.m.m.m.m.m.m.m.m.m.b b b b m.m.m.m.m.m.m.m.m.m.m.m.m.m.x.x.x.x.x.x.x.x.m.m.m.m.m.m.m.m.m.m.m.m.m.m.L L L L m.m.m.m.m.m.m.m.m.m.",
"m.m.m.m.m.m.m.m.m.m.b b b b b m.m.m.m.m.m.m.m.m.m.m.m.m.x.x.x.x.x.x.x.x.m.m.m.m.m.m.m.m.m.m.m.m.m.L L L L L m.m.m.m.m.m.m.m.m.m.",
"m.m.m.m.m.m.m.m.m.b b b b b b m.m.m.m.m.m.m.m.m.m.m.m.m.m.x.x.x.x.x.x.m.m.m.m.m.m.m.m.m.m.m.m.m.m.L L L L L L m.m.m.m.m.m.m.m.m.",
"m.m.m.m.m.m.m.m.m.b b b b b R m.m.m.m.m.m.m.m.m.m.m.m.m.m.m.m.x.x.x.m.m.m.m.m.m.m.m.m.m.m.m.m.m.m.L L L L L L m.m.m.m.m.m.m.m.m.",
"m.m.m.m.m.m.m.m.m.b b b b b m.m.m.m.m.m.m.m.m.m.m.m.m.m.m.m.m.m.m.m.m.m.m.m.m.m.m.m.m.m.m.m.m.m.m.m.L L L L L m.m.m.m.m.m.m.m.m.",
"m.m.m.m.m.m.m.m.m.b b b b b m.m.m.m.m.m.m.m.m.x.x.x.x.x.x.x.x.x.x.x.x.x.x.x.x.x.x.x.m.m.m.m.m.m.m.m.L L L L L m.m.m.m.m.m.m.m.m.",
"m.m.m.m.m.m.m.m.m.b b b b m.m.m.m.m.  m.n.k.x.x.x.x.x.x.x.x.x.x.x.x.x.x.x.x.x.x.x.x.z.b.m.p m.m.m.m.m.L L L L m.m.m.m.m.m.m.m.m.",
"m.m.m.m.m.m.m.m.m.b b b m.m.m.b b R . m.m.v.x.x.x.x.x.x.x.x.x.x.x.x.x.x.x.x.x.x.x.x.l.m.m.a ) L L m.m.m.L L L m.m.m.m.m.m.m.m.m.",
"m.m.m.m.m.m.m.m.m.m.m.m.m.b b b b b g m.m.m.m.m.m.x.x.x.x.x.x.x.x.x.x.x.x.x.x.m.m.m.m.m.m.m.L L L L L m.m.m.m.m.m.m.m.m.m.m.m.m.",
"m.m.m.m.m.m.m.m.m.m.m.b b b b b b m.m.m.m.m.m.m.m.m.m.x.x.x.x.x.x.x.x.x.x.x.m.m.m.m.m.m.m.m.m.) L L L L L m.m.m.m.m.m.m.m.m.m.m.",
"m.m.m.m.m.m.m.m.m.b b b b b b b m.m.m.m.m.m.m.m.m.m.m.x.x.x.x.x.x.x.x.x.x.m.m.m.m.m.m.m.m.m.m.m.L L L L L L ) m.m.m.m.m.m.m.m.m.",
"m.m.m.m.m.m.m.m.b b b b b b b m.m.m.m.m.m.m.m.m.m.m.m.x.x.x.x.x.x.x.x.x.x.x.m.m.m.m.m.m.m.m.m.m.m.L L L L L L L m.m.m.m.m.m.m.m.",
"m.m.m.m.m.m.m.b b b b b b b b b m.m.m.m.m.m.m.m.m.m.m.x.x.x.x.x.x.x.x.x.x.x.m.m.m.m.m.m.m.m.m.m.m.L L L L L L L L m.m.m.m.m.m.m.",
"m.m.m.m.m.m.b b b b b b b b b b m.m.m.m.m.m.m.m.m.m.x.x.x.x.x.x.x.x.x.x.x.x.m.m.m.m.m.m.m.m.m.m.L L L L L L L L L L m.m.m.m.m.m.",
"m.m.m.m.m.b b b b b b b b h b b b m.m.m.m.m.m.m.m.m.x.x.x.x.x.x.x.x.x.x.x.x.m.m.m.m.m.m.m.m.m.m.L L P L L L L L L L L m.m.m.m.m.",
"m.m.m.m.m.b b b b b b b z D v h b m.m.m.m.m.m.m.m.m.c.x.x.x.x.x.x.x.x.x.x.x.m.m.m.m.m.m.m.m.m.L P Y { &.( L L L L L L m.m.m.m.m.",
"m.m.m.m.b b b m.m.b b k m.m.b l h m.m.m.m.m.m.m.m.m.x.x.x.x.x.x.x.x.x.x.x.x.m.m.m.m.m.m.m.m.m.P %.G m.m.| _ L m.m.L L L m.m.m.m.",
"m.m.m.m.S x h m.m.h C m.m.6 m.m.S h m.m.m.m.m.m.m.m.x.x.x.x.x.x.m.x.x.x.x.x.m.m.m.m.m.m.m.m.H  .m.m.m.m.m.=.P L m.m.U @.m.m.m.m.",
"m.m.m.m.m.m.m.m.m.M m.m.& 5 X m.m.l m.m.m.m.m.m.m.m.x.x.x.x.x.m.m.x.x.x.x.x.m.m.m.m.m.m.m.m...m.m.4.^ :.m.m.L L m.m.m.m.m.m.m.m.",
"m.m.m.m.m.m.m.m.b Z m.7 , ; < w m.S b m.m.m.m.m.m.m.x.x.x.x.x.m.m.m.x.x.x.x.x.m.m.m.m.m.m.m.} m.:.! p.1.m.m.f L m.m.m.m.m.m.m.m.",
"m.m.m.m.> m.m.m.b z m.t < ; ; ; e m.N m.m.m.m.m.m.m.x.x.x.x.m.m.m.m.x.x.x.x.x.m.m.m.m.m.m.+.m.w.~ p.p.1.p.m.d K m.m.m.Q m.m.m.m.",
"m.m.m.m.; u m.m.h A m.0 > ; ; ; 7 m.F m.m.m.m.m.m.x.x.x.x.x.m.m.m.m.m.x.x.x.x.m.m.m.m.m.m.#.m.7.p.p.p.<.m.m.f J m.m.m.d.m.m.m.m.",
"m.m.m.m.; * m.m.z l m.m.> ; ; ; y m.m.n m.m.m.m.m.x.x.x.x.m.m.m.m.m.m.x.x.x.x.m.m.m.m.m.*.` m.a.p.p.p.4.m.m.L s m.m.6.d.m.m.m.m.",
"m.m.m.m.m.; t m.m.k S m.e < ; ; + m.m.v m.m.m.m.m.c.x.x.x.m.m.m.m.m.m.x.x.x.x.m.m.m.m.m.o.m.0.E p.p.d.q.m.O.$.m.m.q.! p.m.m.m.m.",
"m.m.m.m.m.; ; # m.m.V m.= * ; ; & > m.c b m.m.m.m.x.x.x.x.m.m.m.m.m.m.x.x.x.x.m.m.m.m.m.;.m.i / p.p.<.m.m.' m.m.w.W p.m.m.m.m.m.",
"m.m.m.m.m.m.; ; y m.m.m.m.# < ; @ m.m.c b m.m.m.m.x.x.x.m.m.m.m.m.m.m.m.x.x.x.m.m.m.m.L -.m.t.! p.p.r.m.m.m.m.r.E d.p.m.m.m.m.m.",
"m.m.m.m.m.m.r * , 1 8 m.m.m.< ; r m.A h b m.m.m.m.m.m.m.m.m.m.m.m.m.m.m.m.m.m.m.m.m.m.L L [ m.8.Q a.m.m.m.i.>./ s.9.m.m.m.m.m.m.",
"m.m.m.m.m.m.m.% $ < < & ; m.m.m.m.m.Z c x m.m.m.m.m.m.m.m.m.m.m.m.m.m.m.m.m.m.m.m.m.m.Y L ] m.m.m.m.m.:.5.! p.a.f.m.m.m.m.m.m.m.",
"m.m.m.m.m.m.m.m.y 1 ; ; ; ; ; m.m.m.m.m.m.m.m.m.m.m.m.m.m.m.m.m.m.m.m.m.m.m.m.m.m.m.m.m.m.m.m.m.m.s.p.p.p.p.! u.m.m.m.m.m.m.m.m.",
"m.m.m.m.m.m.h B m.9 , ; ; ; ; < : q m.m.m.m.m.m.m.m.m.m.m.m.m.m.m.m.m.m.m.m.m.m.m.m.m.m.m.m.e.p.p.p.p.p.p.Q 7.m.| I m.m.m.m.m.m.",
"m.m.m.m.m.m.b n m.m.t < ; ; ; ; ; > - & & - m.m.m.m.m.m.m.m.m.m.m.m.m.m.m.m.m.m.m.m.p.<.,.a.Q p.p.p.p.p.p.,.m.m.%._ m.m.m.m.m.m.",
"m.m.m.m.m.m.b j A m.t 2 ; ; ; ; ; ; ; ; ; ; ; ; ; ; ; ; ; 3 o m.m.j.p.p.p.p.p.p.p.p.p.p.p.p.p.p.p.p.p.p.p.y.m.X._ L m.m.m.m.m.m.",
"m.m.m.m.m.m.b b x m.m.& ; ; ; ; ; ; ; ; ; ; ; ; ; ; ; ; ; ; o m.m.j.p.p.p.p.p.p.p.p.p.p.p.p.p.p.p.p.p.p.1.f.m.s K L m.m.m.m.m.m.",
"m.m.m.m.m.m.b h D m.q < ; ; ; ; ; ; ; ; ; ; ; ; ; ; ; ; ; ; O m.m.m.p.p.p.p.p.p.p.p.p.p.p.p.p.p.p.p.p.p.f.3.m.#.P L m.m.m.m.m.m.",
"m.m.m.m.m.m.m.m m.m.e < ; ; ; ; ; ; ; ; ; ; 3 3 ; ; ; ; m.m.m.m.m.m.m.m.p.p.p.p.p.p.p.p.p.p.p.p.p.p.p.p.d.8.m.m.T m.m.m.m.m.m.m.",
"m.m.m.m.m.m.m.m.m.m.; ; ; ; ; ; ; ; ; ; ; m.m.m.m.m.m.m.m.m.m.m.m.m.m.m.m.m.m.m.m.m.m.p.p.p.p.p.p.p.p.p.p.p.m.m.m.m.m.m.m.m.m.m.",
"m.m.m.m.m.m.m.m.m.m.< ; ; ; ; ; ; ; ; ; ; m.m.m.m.m.m.m.m.m.m.m.m.m.m.m.m.m.m.m.m.m.m.p.p.p.p.p.p.p.p.p.p.d.2.m.m.m.m.m.m.m.m.m.",
"m.m.m.m.m.m.m.m.m.> ; ; ; ; ; ; ; ; ; ; ; m.m.m.m.m.m.m.m.m.m.m.m.m.m.m.m.m.m.m.m.m.m.p.p.p.p.p.p.p.p.p.p.p.d.m.m.m.m.m.m.m.m.m.",
"m.m.m.m.m.m.m.m.m.; ; ; ; ; ; ; ; ; ; ; ; m.m.m.m.m.m.m.m.m.m.m.m.m.m.m.m.m.m.m.m.m.m.p.p.p.p.p.p.p.p.p.p.p.h.m.m.m.m.m.m.m.m.m.",
"m.m.m.m.m.m.m.m.m.; ; ; ; ; ; ; ; ; ; ; ; m.m.m.m.m.m.m.m.m.m.m.m.m.m.m.m.m.m.m.m.m.m.p.p.p.p.p.p.p.p.p.p.p.p.m.m.m.m.m.m.m.m.m.",
"m.m.m.m.m.m.m.m.m.; ; ; ; ; ; ; ; ; ; ; ; m.m.m.m.m.m.m.m.m.m.m.m.m.m.m.m.m.m.m.m.m.m.p.p.p.p.p.p.p.p.p.p.p.p.m.m.m.m.m.m.m.m.m.",
"m.m.m.m.m.m.m.m.m.; ; ; ; ; ; ; ; ; ; ; ; m.m.m.m.m.m.m.m.m.m.m.m.m.m.m.m.m.m.m.m.m.m.p.p.p.p.p.p.p.p.p.p.p.p.p.m.m.m.m.m.m.m.m.",
"m.m.m.m.m.m.m.m.; ; ; ; ; m.m.; ; ; ; ; ; m.m.m.m.m.m.m.m.m.m.m.m.m.m.m.m.m.m.m.m.m.m.p.p.p.p.p.p.p.m.p.p.p.p.p.m.m.m.m.m.m.m.m.",
"m.m.m.m.m.m.m.m.; ; ; ; m.m.m.; ; ; ; ; ; m.m.m.m.m.m.m.m.m.m.m.m.m.m.m.m.m.m.m.m.m.m.p.p.p.p.p.p.m.m.m.p.p.p.p.m.m.m.m.m.m.m.m.",
"m.m.m.m.m.m.m.m.; ; ; ; m.m.m.; ; ; ; ; ; m.m.m.m.m.m.m.m.m.m.m.m.m.m.m.m.m.m.m.m.m.m.p.p.p.p.p.p.m.m.m.p.p.p.p.m.m.m.m.m.m.m.m.",
"m.m.m.m.m.m.m.m.; ; ; ; m.m.m.m.; ; ; ; ; m.m.m.m.m.m.m.m.m.m.m.m.m.m.m.m.m.m.m.m.m.m.p.p.p.p.p.g.m.m.m.m.p.p.p.m.m.m.m.m.m.m.m.",
"m.m.m.m.m.m.m.m.; ; ; m.m.m.m.m.; ; ; ; ; m.m.m.m.m.m.m.m.m.m.m.m.m.m.m.m.m.m.m.m.m.m.p.p.p.p.p.m.m.m.m.m.p.p.p.p.m.m.m.m.m.m.m.",
"m.m.m.m.m.m.m.m.; ; ; m.m.m.m.m.; ; ; ; ; m.m.m.m.m.m.m.m.m.m.m.m.m.m.m.m.m.m.m.m.m.m.p.p.p.p.p.m.m.m.m.m.p.p.p.m.m.m.m.m.m.m.m.",
"m.m.m.m.m.m.m.m.; ; m.m.m.m.m.m.; ; ; ; ; m.m.m.m.m.m.m.m.m.m.m.m.m.m.m.m.m.m.m.m.m.m.p.p.p.p.p.m.m.m.m.m.m.p.p.m.m.m.m.m.m.m.m.",
"m.m.m.m.m.m.m.m.m.m.m.m.m.m.m.m.m.; ; ; ; m.m.m.m.m.m.m.m.m.m.m.m.m.m.m.m.m.m.m.m.m.m.p.p.p.p.p.m.m.m.m.m.m.m.m.m.m.m.m.m.m.m.m.",
"m.m.m.m.m.m.m.m.m.m.m.m.m.m.m.m.m.; ; ; ; m.m.m.m.m.m.m.m.m.m.m.m.m.m.m.m.m.m.m.m.m.m.p.p.p.p.m.m.m.m.m.m.m.m.m.m.m.m.m.m.m.m.m.",
"m.m.m.m.m.m.m.m.m.m.m.m.m.m.m.m.m.; ; ; ; 3 m.m.m.m.m.m.m.m.m.m.m.m.m.m.m.m.m.m.m.m.m.p.p.p.p.m.m.m.m.m.m.m.m.m.m.m.m.m.m.m.m.m.",
"m.m.m.m.m.m.m.m.m.m.m.m.m.m.m.m.m.4 ; ; ; ; m.m.m.m.m.m.m.m.m.m.m.m.m.m.m.m.m.m.m.m.m.p.p.p.p.m.m.m.m.m.m.m.m.m.m.m.m.m.m.m.m.m.",
"m.m.m.m.m.m.m.m.m.m.m.m.m.m.m.m.m.m.; ; ; ; m.m.m.m.m.m.m.m.m.m.m.m.m.m.m.m.m.m.m.m.m.p.p.p.m.m.m.m.m.m.m.m.m.m.m.m.m.m.m.m.m.m.",
"m.m.m.m.m.m.m.m.m.m.m.m.m.m.m.m.m.m.m.; ; m.m.m.m.m.m.m.m.m.m.m.m.m.m.m.m.m.m.m.m.m.m.p.p.p.m.m.m.m.m.m.m.m.m.m.m.m.m.m.m.m.m.m.",
"m.m.m.m.m.m.m.m.m.m.m.m.m.m.m.m.m.m.m.m.m.m.m.m.m.m.m.m.m.m.m.m.m.m.m.m.m.m.m.m.m.m.m.m.m.m.m.m.m.m.m.m.m.m.m.m.m.m.m.m.m.m.m.m.",
"m.m.m.m.m.m.m.m.m.m.m.m.m.m.m.m.m.m.m.m.m.m.m.m.m.m.m.m.m.m.m.m.m.m.m.m.m.m.m.m.m.m.m.m.m.m.m.m.m.m.m.m.m.m.m.m.m.m.m.m.m.m.m.m."
};
